<svg width="50" height="49" viewBox="0 0 50 49" fill="none" xmlns="http://www.w3.org/2000/svg">
<path d="M25.0296 4.16602C13.5234 4.16602 4.19629 13.2158 4.19629 24.38C4.19629 35.5442 13.5234 44.5939 25.0296 44.5939C36.5359 44.5939 45.863 35.5442 45.863 24.38C45.863 13.2158 36.5359 4.16602 25.0296 4.16602ZM32.713 14.3983C34.34 13.8728 35.8588 15.3464 35.3171 16.9251L31.1505 29.0535C30.9421 29.6579 30.4692 30.1167 29.8463 30.3188C28.2838 30.8242 18.9109 33.8542 17.3463 34.3616C15.7192 34.8872 14.2004 33.4136 14.7421 31.8349L18.9088 19.7065C19.1171 19.1021 19.59 18.6433 20.213 18.4411L32.713 14.3983ZM25.0296 22.3586C23.8796 22.3586 22.9463 23.2642 22.9463 24.38C22.9463 25.4958 23.8796 26.4014 25.0296 26.4014C26.1796 26.4014 27.113 25.4958 27.113 24.38C27.113 23.2642 26.1796 22.3586 25.0296 22.3586Z" fill="white"/>
</svg>
