<svg width="52" height="15" viewBox="0 0 52 15" fill="none" xmlns="http://www.w3.org/2000/svg">
<path d="M0.28 14V-9.53674e-07H1.5L7.9 10.92H7.26L13.6 -9.53674e-07H14.82V14H13.4V2.22H13.74L7.9 12.22H7.2L1.32 2.22H1.7V14H0.28ZM23.3616 14.1C22.3482 14.1 21.4349 13.8733 20.6216 13.42C19.8216 12.9533 19.1882 12.32 18.7216 11.52C18.2549 10.7067 18.0216 9.78 18.0216 8.74C18.0216 7.68667 18.2549 6.76 18.7216 5.96C19.1882 5.16 19.8216 4.53333 20.6216 4.08C21.4216 3.62667 22.3349 3.4 23.3616 3.4C24.4016 3.4 25.3216 3.62667 26.1216 4.08C26.9349 4.53333 27.5682 5.16 28.0216 5.96C28.4882 6.76 28.7216 7.68667 28.7216 8.74C28.7216 9.78 28.4882 10.7067 28.0216 11.52C27.5682 12.32 26.9349 12.9533 26.1216 13.42C25.3082 13.8733 24.3882 14.1 23.3616 14.1ZM23.3616 12.84C24.1216 12.84 24.7949 12.6733 25.3816 12.34C25.9682 11.9933 26.4282 11.5133 26.7616 10.9C27.1082 10.2733 27.2816 9.55333 27.2816 8.74C27.2816 7.91333 27.1082 7.19333 26.7616 6.58C26.4282 5.96667 25.9682 5.49333 25.3816 5.16C24.7949 4.81333 24.1282 4.64 23.3816 4.64C22.6349 4.64 21.9682 4.81333 21.3816 5.16C20.7949 5.49333 20.3282 5.96667 19.9816 6.58C19.6349 7.19333 19.4616 7.91333 19.4616 8.74C19.4616 9.55333 19.6349 10.2733 19.9816 10.9C20.3282 11.5133 20.7949 11.9933 21.3816 12.34C21.9682 12.6733 22.6282 12.84 23.3616 12.84Z" fill="#DC143C"/>
<path d="M34.0277 14L29.3677 3.5H30.8477L35.1277 13.24H34.4277L38.7677 3.5H40.1677L35.4877 14H34.0277ZM46.3345 14.1C45.2412 14.1 44.2812 13.8733 43.4545 13.42C42.6279 12.9533 41.9812 12.32 41.5145 11.52C41.0479 10.7067 40.8145 9.78 40.8145 8.74C40.8145 7.7 41.0345 6.78 41.4745 5.98C41.9279 5.18 42.5412 4.55333 43.3145 4.1C44.1012 3.63333 44.9812 3.4 45.9545 3.4C46.9412 3.4 47.8145 3.62667 48.5745 4.08C49.3479 4.52 49.9545 5.14667 50.3945 5.96C50.8345 6.76 51.0545 7.68667 51.0545 8.74C51.0545 8.80667 51.0479 8.88 51.0345 8.96C51.0345 9.02667 51.0345 9.1 51.0345 9.18H41.8945V8.12H50.2745L49.7145 8.54C49.7145 7.78 49.5479 7.10667 49.2145 6.52C48.8945 5.92 48.4545 5.45333 47.8945 5.12C47.3345 4.78667 46.6879 4.62 45.9545 4.62C45.2345 4.62 44.5879 4.78667 44.0145 5.12C43.4412 5.45333 42.9945 5.92 42.6745 6.52C42.3545 7.12 42.1945 7.80667 42.1945 8.58V8.8C42.1945 9.6 42.3679 10.3067 42.7145 10.92C43.0745 11.52 43.5679 11.9933 44.1945 12.34C44.8345 12.6733 45.5612 12.84 46.3745 12.84C47.0145 12.84 47.6079 12.7267 48.1545 12.5C48.7145 12.2733 49.1945 11.9267 49.5945 11.46L50.3945 12.38C49.9279 12.94 49.3412 13.3667 48.6345 13.66C47.9412 13.9533 47.1745 14.1 46.3345 14.1Z" fill="white"/>
</svg>
