<svg width="50" height="49" viewBox="0 0 50 49" fill="none" xmlns="http://www.w3.org/2000/svg">
<path d="M6.40512 19.2524C5.05012 19.8043 4.20908 20.7867 4.19637 22.1774C4.18762 23.1497 4.86387 24.4555 6.21887 24.9892C6.77699 25.2095 14.6135 26.2323 14.6135 26.2323C14.6135 26.2323 16.6876 32.5937 17.4351 34.8293C17.6516 35.4762 17.7749 35.7935 18.2499 36.216C19.0557 36.9316 20.418 36.7072 21.0072 36.1332C22.566 34.6171 25.0297 32.2783 25.0297 32.2783L26.0666 33.097C26.0666 33.097 30.671 36.6607 33.1878 38.3384C34.6697 39.3269 35.6982 40.3579 37.3662 40.3639C38.2157 40.368 39.5785 39.9576 40.4793 38.957C41.0745 38.296 41.4564 37.2388 41.6041 36.2908C41.9399 34.138 45.8797 10.8596 45.863 10.045C45.8364 8.74523 44.7095 8.01347 43.7728 8.02155C43.1845 8.02761 42.6997 8.19339 41.621 8.51277C33.2764 10.9849 6.95783 19.0281 6.40512 19.2524ZM37.5297 14.0857C37.5297 14.0857 26.5339 23.3721 22.1399 27.6453C20.7322 29.0138 20.6328 31.3626 20.6328 31.3626L18.3616 24.312L37.5297 14.0857Z" fill="white"/>
</svg>
