<svg width="50" height="49" viewBox="0 0 50 49" fill="none" xmlns="http://www.w3.org/2000/svg">
<path d="M24.9979 4.07227C13.4916 4.07227 4.16455 13.1225 4.16455 24.2862C4.16455 27.1849 4.85206 29.9777 6.05206 32.5614C4.34373 41.122 4.22915 42.0998 4.22915 42.0998C3.94998 43.5018 5.19164 44.7025 6.63956 44.4371C6.63956 44.4371 7.55831 44.2412 16.4687 42.6051C19.1312 43.7693 22.0104 44.5002 24.9979 44.5002C36.5041 44.5002 45.8312 35.45 45.8312 24.2862C45.8312 13.1225 36.5041 4.07227 24.9979 4.07227ZM19.1395 14.1792C21.0916 14.1792 23.6958 16.706 23.6958 18.6011C23.6958 19.2327 22.3333 21.4793 22.3937 21.7595C22.8271 23.7663 25.5271 26.4495 27.6021 26.813C27.85 26.8564 30.2062 25.5496 30.8562 25.5496C32.8104 25.5496 35.4146 28.0763 35.4146 29.9714C35.4146 31.8665 32.8104 34.3932 30.8562 34.3932C28.3396 34.3932 23.6958 31.8665 21.0916 29.3397C20.8104 29.0678 20.0708 28.3482 19.7896 28.0763C17.1854 25.5496 14.5812 21.0433 14.5812 18.6011C14.5812 16.706 17.1854 14.1792 19.1395 14.1792Z" fill="white"/>
</svg>
